<svg width="323" height="104" viewBox="0 0 323 104" fill="none" xmlns="http://www.w3.org/2000/svg">
<path d="M62.3654 32.1725L52.2323 21.5328C37.4443 9.71766 28.6939 9.20905 11.1934 16.9729C4.2596 31.7875 5.00909 39.6893 12.46 53.1986C28.0159 65.3059 37.3969 66.9062 55.5256 58.7718C51.6918 66.3432 52.7639 70.3536 55.5256 77.0114C32.4984 78.7883 21.6559 76.1052 6.38017 64.0917C3.28282 69.3962 1.85748 72.4238 6.38017 79.038C30.665 87.7693 42.6675 86.6176 63.8854 83.8512C57.9608 69.8897 58.307 63.7233 63.8854 54.9719C48.8301 52.7374 40.7691 50.4047 27.153 44.0789C15.3824 37.9621 15.4478 33.5132 19.0465 25.3327C30.3561 22.5876 36.6501 23.093 47.7991 27.3593L62.3654 32.1725Z" fill="white"/>
<path d="M19.2998 98.5061L28.9262 4.30656L31.3015 5.14302L23.6723 98.5061L19.2998 98.5061Z" fill="white"/>
<path d="M45.0511 100.557L34.2178 5.90074L38.046 1.11158e-05L48.0524 103.357L45.0511 100.557Z" fill="white"/>
<path d="M89.696 55.968L89.376 71.712L94.752 72.16C94.752 73.3547 94.3893 74.6347 93.664 76H78.944L78.752 73.76C80.6293 73.0773 82.4427 72.5867 84.192 72.288C83.936 55.648 83.7227 43.2747 83.552 35.168C82.6133 35.0827 80.736 34.5707 77.92 33.632L78.24 31.2H109.088C109.173 31.7547 109.216 32.608 109.216 33.76C109.216 36.064 108.917 38.624 108.32 41.44C107.381 41.6107 106.144 41.696 104.608 41.696L103.072 35.616H89.952C89.8667 39.2 89.7813 44.576 89.696 51.744H99.808L100.32 47.136C101.515 47.136 102.795 47.4987 104.16 48.224V60.384L101.92 60.576C101.28 58.7413 100.853 57.2053 100.64 55.968H89.696ZM119.585 87.904C121.206 87.904 122.785 86.3467 124.321 83.232C125.9 80.1173 126.796 77.7067 127.009 76H125.473L115.361 47.84L109.985 47.328C109.985 46.1333 110.348 44.8533 111.073 43.488H125.793L125.985 45.728C124.62 46.3253 123.105 46.7947 121.441 47.136L127.009 64.608L128.481 70.24H129.121L136.801 47.136L131.425 45.728L131.617 43.488H146.017C146.742 44.8533 147.105 46.1333 147.105 47.328C145.356 47.5413 143.606 47.6907 141.857 47.776C140.748 51.0187 139.084 55.8613 136.865 62.304C134.689 68.7467 132.961 73.7387 131.681 77.28C130.444 80.8213 129.206 83.7013 127.969 85.92C126.732 88.1387 125.494 89.6107 124.257 90.336C123.062 91.104 121.718 91.488 120.225 91.488C117.58 91.488 115.105 90.976 112.801 89.952L111.649 89.376C111.948 84.512 112.14 81.8453 112.225 81.376C112.566 81.248 113.804 81.184 115.937 81.184L118.113 87.712C118.497 87.84 118.988 87.904 119.585 87.904Z" fill="#00FF94"/>
<path d="M168.397 42.72C172.493 42.72 175.458 43.744 177.293 45.792C179.128 47.7973 180.045 50.8693 180.045 55.008C180.045 56.2027 179.874 61.7493 179.533 71.648L184.909 72.16C184.909 73.3547 184.546 74.6347 183.821 76H169.101L168.909 73.76C170.872 73.0773 172.792 72.5653 174.669 72.224C174.413 61.0453 174.178 54.8373 173.965 53.6C173.794 52.32 173.496 51.2107 173.069 50.272C172.642 49.3333 172.002 48.672 171.149 48.288C170.296 47.904 169.165 47.712 167.757 47.712C164.941 47.712 162.21 48.3947 159.565 49.76C159.309 59.488 159.138 66.784 159.053 71.648L164.429 72.16C164.429 73.3547 164.066 74.6347 163.341 76H148.621L148.429 73.76C150.392 73.0773 152.312 72.5653 154.189 72.224C153.933 61.3867 153.72 53.3653 153.549 48.16C151.202 48.032 149.325 47.776 147.917 47.392L148.173 44.064C150.477 43.424 153.826 43.104 158.221 43.104C158.733 43.872 159.117 44.9813 159.373 46.432C161.208 45.4507 163.042 44.5973 164.877 43.872C166.754 43.104 167.928 42.72 168.397 42.72ZM213.595 55.072L213.275 71.584C215.109 71.712 216.944 72.0107 218.779 72.48L218.651 74.72C217.968 75.0613 216.731 75.4453 214.939 75.872C213.189 76.256 211.461 76.448 209.755 76.448C208.987 74.912 208.56 73.44 208.475 72.032C203.611 75.232 200.197 76.832 198.235 76.832C195.205 76.832 192.773 76.0213 190.939 74.4C189.104 72.7787 188.187 70.5173 188.187 67.616C188.187 60.9173 192.283 57.4613 200.475 57.248C205.253 57.12 207.664 57.056 207.707 57.056L207.643 54.88C207.557 51.936 207.003 49.824 205.979 48.544C204.955 47.2213 203.12 46.56 200.475 46.56C199.365 46.56 198.171 46.816 196.891 47.328L195.355 53.728C195.141 53.7707 194.779 53.792 194.267 53.792L191.643 53.6C190.96 51.7653 190.597 49.2267 190.555 45.984C191.365 45.5573 193.221 44.9173 196.123 44.064C199.024 43.168 200.88 42.72 201.691 42.72C206.043 42.72 209.115 43.68 210.907 45.6C212.699 47.52 213.595 50.6773 213.595 55.072ZM199.643 72.48C200.88 72.48 203.739 71.0933 208.219 68.32L207.899 60.32C204.997 60.576 202.565 60.8107 200.603 61.024C198.64 61.2373 197.061 61.8133 195.867 62.752C194.672 63.648 194.075 65.0773 194.075 67.04C194.075 70.6667 195.931 72.48 199.643 72.48ZM242.335 42.72C246.431 42.72 249.396 43.744 251.231 45.792C253.065 47.7973 253.983 50.8693 253.983 55.008C253.983 56.2027 253.812 61.7493 253.471 71.648L258.847 72.16C258.847 73.3547 258.484 74.6347 257.759 76H243.039L242.847 73.76C244.809 73.0773 246.729 72.5653 248.607 72.224C248.351 61.0453 248.116 54.8373 247.903 53.6C247.732 52.32 247.433 51.2107 247.007 50.272C246.58 49.3333 245.94 48.672 245.087 48.288C244.233 47.904 243.103 47.712 241.695 47.712C238.879 47.712 236.148 48.3947 233.503 49.76C233.247 59.488 233.076 66.784 232.991 71.648L238.367 72.16C238.367 73.3547 238.004 74.6347 237.279 76H222.559L222.367 73.76C224.329 73.0773 226.249 72.5653 228.127 72.224C227.871 61.3867 227.657 53.3653 227.487 48.16C225.14 48.032 223.263 47.776 221.855 47.392L222.111 44.064C224.415 43.424 227.764 43.104 232.159 43.104C232.671 43.872 233.055 44.9813 233.311 46.432C235.145 45.4507 236.98 44.5973 238.815 43.872C240.692 43.104 241.865 42.72 242.335 42.72ZM277.036 76.768C271.916 76.768 268.097 75.3387 265.58 72.48C263.063 69.5787 261.804 65.4613 261.804 60.128C261.804 48.5227 266.967 42.72 277.292 42.72C278.956 42.72 280.684 42.976 282.476 43.488C284.268 43.9573 285.676 44.4907 286.7 45.088C286.572 49.056 286.167 51.872 285.484 53.536C284.716 53.7493 284.097 53.856 283.628 53.856H282.54C282.327 53.856 282.071 53.8347 281.772 53.792L280.172 46.752C278.764 46.624 277.953 46.56 277.74 46.56C274.668 46.56 272.215 47.4987 270.38 49.376C268.588 51.2533 267.692 54.4107 267.692 58.848C267.692 63.2853 268.375 66.656 269.74 68.96C271.148 71.264 273.836 72.416 277.804 72.416C279.681 72.416 282.625 71.52 286.636 69.728C287.447 70.8373 287.873 71.8187 287.916 72.672C285.74 73.952 283.607 74.9547 281.516 75.68C279.425 76.4053 277.932 76.768 277.036 76.768ZM308.248 72.416C310.125 72.416 313.069 71.52 317.08 69.728C317.89 70.8373 318.317 71.8187 318.36 72.672C316.184 73.952 314.05 74.9547 311.96 75.68C309.869 76.4053 308.376 76.768 307.48 76.768C302.53 76.768 298.754 75.296 296.152 72.352C293.549 69.3653 292.248 65.2053 292.248 59.872C292.248 54.5387 293.506 50.3573 296.024 47.328C298.584 44.256 302.402 42.72 307.48 42.72C311.405 42.72 314.392 44.128 316.44 46.944C318.53 49.76 319.576 53.536 319.576 58.272C319.234 58.8693 318.957 59.2747 318.744 59.488L298.135 59.168C298.178 63.4773 298.925 66.7627 300.376 69.024C301.869 71.2853 304.493 72.416 308.248 72.416ZM313.752 55.52C313.752 52.704 313.24 50.528 312.216 48.992C311.192 47.4133 309.485 46.624 307.096 46.624C304.706 46.624 302.573 47.072 300.696 47.968C299.416 50.528 298.605 53.152 298.264 55.84C301.634 55.7973 306.797 55.6907 313.752 55.52Z" fill="white"/>
</svg>
